<svg width="245.4" height="77.401" viewBox="0 0 245.4 77.401" xmlns="http://www.w3.org/2000/svg"><g id="svgGroup" stroke-linecap="round" fill-rule="nonzero" font-size="9pt" stroke="#000000" stroke-width="0" fill="#d9d9d9" style="stroke:#000000;stroke-width:0;fill:#d9d9d9"><path d="M 30.9 76 L 0 76 L 0 74.6 A 26.14 26.14 0 0 0 0.078 74.598 C 0.687 74.583 4.7 74.469 5.9 74.1 A 5.633 5.633 0 0 0 7.182 73.607 C 7.855 73.24 8.327 72.758 8.66 72.18 A 5.715 5.715 0 0 0 9.3 70.2 A 4.362 4.362 0 0 0 9.339 70.008 C 9.6 68.589 9.6 65.381 9.6 62.9 L 9.6 17.4 A 484.824 484.824 0 0 0 9.6 16.946 C 9.599 15.512 9.585 13.879 9.443 12.666 A 8.135 8.135 0 0 0 9.3 11.8 C 9.066 10.316 8.526 9.136 7.205 8.405 A 5.605 5.605 0 0 0 5.9 7.9 C 4.6 7.5 0 7.4 0 7.4 L 0 6 L 21.5 6 A 79.365 79.365 0 0 1 29.025 6.337 C 46.127 7.968 51.79 15.179 53.204 20.609 A 11.935 11.935 0 0 1 53.6 23.6 A 14.178 14.178 0 0 1 47.966 34.79 C 43.202 38.669 35.792 40.9 27.2 40.9 L 24.6 40.9 L 24.6 39.3 L 27.3 39.3 A 22.288 22.288 0 0 0 35.266 37.921 A 14.696 14.696 0 0 0 45.2 23.8 A 18.213 18.213 0 0 0 45.2 23.684 C 45.148 15.602 39.713 10.723 31.433 8.696 A 42.495 42.495 0 0 0 21.4 7.6 L 18 7.6 L 18 69.7 L 17.9 73.7 L 30.9 74.7 L 30.9 76 Z M 112.1 6 L 112.1 7.4 L 102.3 8.2 L 102.1 74.4 A 3.634 3.634 0 0 1 102.107 74.4 C 102.822 74.401 119.822 74.598 125.9 74.1 A 84.858 84.858 0 0 0 127.415 73.992 C 132.005 73.613 135.529 72.655 137.614 66.298 A 30.597 30.597 0 0 0 138.6 62.3 A 87.63 87.63 0 0 0 138.709 61.712 C 140.388 52.476 142.4 33.7 142.4 33.7 L 143.8 33.7 L 139.4 76 L 84.2 76 L 84.2 74.6 A 26.14 26.14 0 0 0 84.278 74.598 C 84.887 74.583 88.9 74.469 90.1 74.1 C 91.6 73.725 92.436 73.038 92.925 72.111 A 6.108 6.108 0 0 0 93.5 70.2 A 7.066 7.066 0 0 0 93.602 69.646 C 93.802 68.29 93.813 66.255 93.9 64.6 L 93.9 17.4 C 93.819 15.867 93.804 14.009 93.643 12.666 A 8.311 8.311 0 0 0 93.5 11.8 A 10.378 10.378 0 0 0 93.441 11.459 C 93.109 9.733 92.354 8.464 90.1 7.9 C 88.8 7.5 84.2 7.4 84.2 7.4 L 84.2 6 L 112.1 6 Z M 166.7 6 L 166.7 7.4 L 156.9 8.2 L 156.7 74.4 A 3.634 3.634 0 0 1 156.707 74.4 C 157.422 74.401 174.422 74.598 180.5 74.1 A 84.858 84.858 0 0 0 182.015 73.992 C 186.605 73.613 190.129 72.655 192.214 66.298 A 30.597 30.597 0 0 0 193.2 62.3 A 87.63 87.63 0 0 0 193.309 61.712 C 194.988 52.476 197 33.7 197 33.7 L 198.4 33.7 L 194 76 L 138.8 76 L 138.8 74.6 A 26.14 26.14 0 0 0 138.878 74.598 C 139.487 74.583 143.5 74.469 144.7 74.1 C 146.2 73.725 147.036 73.038 147.525 72.111 A 6.108 6.108 0 0 0 148.1 70.2 A 7.066 7.066 0 0 0 148.202 69.646 C 148.402 68.29 148.413 66.255 148.5 64.6 L 148.5 17.4 C 148.419 15.867 148.404 14.009 148.243 12.666 A 8.311 8.311 0 0 0 148.1 11.8 A 10.378 10.378 0 0 0 148.041 11.459 C 147.709 9.733 146.954 8.464 144.7 7.9 C 143.4 7.5 138.8 7.4 138.8 7.4 L 138.8 6 L 166.7 6 Z M 210.6 30.3 A 39.386 39.386 0 0 1 205.116 26.312 A 14.675 14.675 0 0 1 199.5 15.1 A 11.954 11.954 0 0 1 199.649 13.184 C 200.287 9.249 202.93 6.833 206.547 5.579 A 22.376 22.376 0 0 1 213.8 4.5 A 34.582 34.582 0 0 1 218.34 4.811 C 224.725 5.66 231.111 8.172 234.5 11.4 L 233.2 0.2 L 234.6 0 L 242.1 43.6 C 244.1 47.3 245.4 51.7 245.4 57.2 A 19.173 19.173 0 0 1 235.282 73.988 A 26.848 26.848 0 0 1 221.9 77.4 A 38.894 38.894 0 0 1 221.318 77.396 C 199.651 77.071 195.547 58.624 196.172 48.114 A 28.794 28.794 0 0 1 196.4 45.8 L 185.7 53.5 L 184.9 52.4 L 210.6 30.3 Z M 217.5 26.8 A 2556.364 2556.364 0 0 1 217.596 26.838 C 219.62 27.626 221.725 28.45 223.831 29.362 A 40.593 40.593 0 0 1 239.7 40.2 C 239.2 37.8 238.6 35.4 238 33.4 A 57.304 57.304 0 0 0 236.776 29.594 C 231.986 16.338 223.607 9.226 216.289 7.041 A 16.809 16.809 0 0 0 211.5 6.3 C 207.577 6.3 204.392 7.936 202.944 10.941 A 9.038 9.038 0 0 0 202.1 14.9 C 202.1 19.762 206.964 22.435 213.408 25.109 A 184.595 184.595 0 0 0 215.6 26 L 225 17.9 L 225.9 19 L 217.5 26.8 Z M 208.3 35.4 C 198.646 44.394 199.545 66.051 211.558 73.35 A 17.315 17.315 0 0 0 220.7 75.8 C 225.083 75.8 228.838 74.341 231.695 71.924 A 17.537 17.537 0 0 0 237.7 58.4 A 21.755 21.755 0 0 0 237.676 57.364 C 237.021 43.619 223.332 37.941 212.5 31.5 L 208.3 35.4 Z M 54.6 74.6 A 26.14 26.14 0 0 0 54.678 74.598 C 55.287 74.583 59.3 74.469 60.5 74.1 A 5.633 5.633 0 0 0 61.782 73.607 C 62.455 73.24 62.927 72.758 63.26 72.18 A 5.715 5.715 0 0 0 63.9 70.2 A 6.973 6.973 0 0 0 64.002 69.646 C 64.2 68.29 64.2 66.255 64.2 64.6 L 64.2 19.1 A 1031.219 1031.219 0 0 0 64.2 18.552 C 64.199 16.468 64.185 14.027 64.021 12.564 A 6.983 6.983 0 0 0 63.9 11.8 C 63.666 10.316 63.126 9.136 61.805 8.405 A 5.605 5.605 0 0 0 60.5 7.9 C 59.2 7.5 54.6 7.4 54.6 7.4 L 54.6 6 L 82.2 6 L 82.2 7.4 A 26.14 26.14 0 0 0 82.122 7.402 C 81.513 7.417 77.5 7.531 76.3 7.9 A 5.633 5.633 0 0 0 75.018 8.393 C 74.345 8.76 73.873 9.242 73.54 9.82 A 5.715 5.715 0 0 0 72.9 11.8 A 4.362 4.362 0 0 0 72.861 11.992 C 72.6 13.411 72.6 16.619 72.6 19.1 L 72.6 62.9 A 1031.219 1031.219 0 0 0 72.6 63.448 C 72.601 65.532 72.615 67.973 72.779 69.436 A 6.983 6.983 0 0 0 72.9 70.2 C 73.134 71.684 73.674 72.864 74.995 73.595 A 5.605 5.605 0 0 0 76.3 74.1 C 77.6 74.5 82.2 74.6 82.2 74.6 L 82.2 76 L 54.6 76 L 54.6 74.6 Z" vector-effect="non-scaling-stroke"/></g></svg>