<svg width="165.458" height="70.5" viewBox="0 0 165.458 70.5" xmlns="http://www.w3.org/2000/svg"><g id="svgGroup" stroke-linecap="round" fill-rule="nonzero" font-size="9pt" stroke="#000000" stroke-width="0" fill="#d9d9d9" style="stroke:#000000;stroke-width:0;fill:#d9d9d9"><path d="M 101.1 0.1 A 20.838 20.838 0 0 1 101.457 0.103 C 109.641 0.243 114.459 5.227 111.6 14 C 105.3 33.2 92.8 68.8 105.3 68.8 C 120.6 68.8 129.8 39.9 131.9 33.6 C 135.966 19.052 141.584 3.36 142.629 0.471 A 157.374 157.374 0 0 1 142.8 0 L 151.7 0.1 C 150.85 2.438 149.859 5.198 148.757 8.203 A 507.709 507.709 0 0 1 145.6 16.6 C 146.146 17.875 157.307 42.701 163.375 57.7 A 273.598 273.598 0 0 1 165 61.8 A 10.892 10.892 0 0 1 165.149 62.294 C 166.73 68.019 161.952 70.1 156.7 70.1 L 138.2 70.1 C 129.5 70.1 127.3 63.1 127.3 55.9 C 127.3 54.456 127.472 52.668 127.817 50.62 A 60.316 60.316 0 0 1 128.5 47.2 A 86.899 86.899 0 0 1 128.235 47.801 C 125.525 53.887 117.249 70.5 104.4 70.5 A 20.535 20.535 0 0 1 103.27 70.47 C 94.531 69.988 92.706 63.85 92.369 57.711 A 53.28 53.28 0 0 1 92.3 54.8 A 12.254 12.254 0 0 1 92.305 54.38 C 92.316 54.046 92.357 53.771 92.5 53.7 C 91.956 52.431 81.389 27.418 75.32 13.439 A 887.743 887.743 0 0 0 73.6 9.5 A 14.604 14.604 0 0 1 73.179 8.361 C 71.347 2.649 74.917 0.006 81.4 0.1 L 101.1 0.1 Z M 81.3 1.7 C 79.55 1.7 77.917 1.856 76.67 2.34 A 3.85 3.85 0 0 0 74.9 3.6 A 3.002 3.002 0 0 0 74.467 4.479 C 74.06 5.817 74.488 7.634 75.7 10.3 C 80.557 20.907 89.149 41.439 92.61 49.686 A 4767.953 4767.953 0 0 0 92.7 49.9 A 74.482 74.482 0 0 1 93.624 44.789 C 94.701 39.746 96.309 34.103 97.916 28.872 A 434.895 434.895 0 0 1 99 25.4 A 313.292 313.292 0 0 1 99.51 23.815 C 105.855 4.288 108.601 2.187 97.3 1.7 L 81.3 1.7 Z M 156.8 68.5 C 162.1 68.5 165.7 66.4 162.9 60.9 C 158.3 49.1 148.3 26.4 144.9 19 L 145 19.2 A 291.374 291.374 0 0 0 141.467 30.621 C 137 46.292 134.341 61.964 140.06 66.849 A 6.885 6.885 0 0 0 144.7 68.4 L 156.8 68.5 Z M 30.9 70.1 L 0 70.1 L 0 68.7 A 26.14 26.14 0 0 0 0.078 68.698 C 0.687 68.683 4.7 68.569 5.9 68.2 A 5.633 5.633 0 0 0 7.182 67.707 C 7.855 67.34 8.327 66.858 8.66 66.28 A 5.715 5.715 0 0 0 9.3 64.3 A 4.362 4.362 0 0 0 9.339 64.108 C 9.6 62.689 9.6 59.481 9.6 57 L 9.6 11.5 A 484.824 484.824 0 0 0 9.6 11.046 C 9.599 9.612 9.585 7.979 9.443 6.766 A 8.135 8.135 0 0 0 9.3 5.9 C 9.066 4.416 8.526 3.236 7.205 2.505 A 5.605 5.605 0 0 0 5.9 2 C 4.6 1.6 0 1.5 0 1.5 L 0 0.1 L 21.5 0.1 A 79.365 79.365 0 0 1 29.025 0.437 C 46.127 2.068 51.79 9.279 53.204 14.709 A 11.935 11.935 0 0 1 53.6 17.7 A 14.178 14.178 0 0 1 47.966 28.89 C 43.202 32.769 35.792 35 27.2 35 L 24.6 35 L 24.6 33.4 L 27.3 33.4 A 22.288 22.288 0 0 0 35.266 32.021 A 14.696 14.696 0 0 0 45.2 17.9 A 18.213 18.213 0 0 0 45.2 17.784 C 45.148 9.702 39.713 4.823 31.433 2.796 A 42.495 42.495 0 0 0 21.4 1.7 L 18 1.7 L 18 63.8 L 17.9 67.8 L 30.9 68.8 L 30.9 70.1 Z M 54.6 68.7 A 26.14 26.14 0 0 0 54.678 68.698 C 55.287 68.683 59.3 68.569 60.5 68.2 A 5.633 5.633 0 0 0 61.782 67.707 C 62.455 67.34 62.927 66.858 63.26 66.28 A 5.715 5.715 0 0 0 63.9 64.3 A 6.973 6.973 0 0 0 64.002 63.746 C 64.2 62.39 64.2 60.355 64.2 58.7 L 64.2 13.2 A 1031.219 1031.219 0 0 0 64.2 12.652 C 64.199 10.568 64.185 8.127 64.021 6.664 A 6.983 6.983 0 0 0 63.9 5.9 C 63.666 4.416 63.126 3.236 61.805 2.505 A 5.605 5.605 0 0 0 60.5 2 C 59.2 1.6 54.6 1.5 54.6 1.5 L 54.6 0.1 L 82.2 0.1 L 82.2 1.5 A 26.14 26.14 0 0 0 82.122 1.502 C 81.513 1.517 77.5 1.631 76.3 2 A 5.633 5.633 0 0 0 75.018 2.493 C 74.345 2.86 73.873 3.342 73.54 3.92 A 5.715 5.715 0 0 0 72.9 5.9 A 4.362 4.362 0 0 0 72.861 6.092 C 72.6 7.511 72.6 10.719 72.6 13.2 L 72.6 57 A 1031.219 1031.219 0 0 0 72.6 57.548 C 72.601 59.632 72.615 62.073 72.779 63.536 A 6.983 6.983 0 0 0 72.9 64.3 C 73.134 65.784 73.674 66.964 74.995 67.695 A 5.605 5.605 0 0 0 76.3 68.2 C 77.6 68.6 82.2 68.7 82.2 68.7 L 82.2 70.1 L 54.6 70.1 L 54.6 68.7 Z" vector-effect="non-scaling-stroke"/></g></svg>